{"title":"Neveroyatnye priklyucheniya italyantsev v Rossii (1973) AVC","uid":8826486,"size":749850798,"categoryP":"video","categoryS":"movies","magnet":"?xt=urn:btih:b267410dca6012422b201483d0137cfc44ec7eeb&amp;dn=Neveroyatnye+priklyucheniya+italyantsev+v+Rossii+%281973%29+AVC+&amp;tr=udp%3A%2F%2Ftracker.openbittorrent.com%3A80&amp;tr=udp%3A%2F%2Fopen.demonii.com%3A1337&amp;tr=udp%3A%2F%2Ftracker.coppersurfer.tk%3A6969&amp;tr=udp%3A%2F%2Fexodus.desync.com%3A6969","seeders":0,"leechers":1,"uploader":"R0thschild","files":3,"time":1376860607,"description":" &lt;a href=&quot;http://www.imdb.com/title/tt0070439/&quot; rel=&quot;nofollow&quot; target=&quot;_NEW&quot;&gt;http://www.imdb.com/title/tt0070439/&lt;/a&gt;\n\nFormat : MPEG-4\n   Format profile : Base Media\n   Codec ID : isom\n   File size : 715 MiB\n   Duration : 1h 38mn\n   Overall bit rate mode : Variable\n   Overall bit rate : 1 020 Kbps\n   Encoded date : UTC 2013-02-19 13:07:12\n   Tagged date : UTC 2013-02-19 13:07:12\n Video #1\n   ID : 1\n   Format : AVC\n   Format/Info : Advanced Video Codec\n   Format profile : &lt;a class=&quot;__cf_email__&quot; href=&quot;/cdn-cgi/l/email-protection&quot; data-cfemail=&quot;56143725333a3f3833161a637866&quot;&gt;[email&amp;#160;protected]&lt;/a&gt;&lt;script cf-hash='f9e31' type=&quot;text/javascript&quot;&gt;\n/* &lt;![CDATA[ */!function(){try{var t=&quot;currentScript&quot;in document?document.currentScript:function(){for(var t=document.getElementsByTagName(&quot;script&quot;),e=t.length;e--;)if(t[e].getAttribute(&quot;cf-hash&quot;))return t[e]}();if(t&amp;&amp;t.previousSibling){var e,r,n,i,c=t.previousSibling,a=c.getAttribute(&quot;data-cfemail&quot;);if(a){for(e=&quot;&quot;,r=parseInt(a.substr(0,2),16),n=2;a.length-n;n+=2)i=parseInt(a.substr(n,2),16)^r,e+=String.fromCharCode(i);e=document.createTextNode(e),c.parentNode.replaceChild(e,c)}}}catch(u){}}();/* ]]&gt; */&lt;/script&gt;\n   Format settings, CABAC : No\n   Format settings, ReFrames : 3 frames\n   Codec ID : avc1\n   Codec ID/Info : Advanced Video Coding\n   Duration : 1h 38mn\n   Bit rate : 952 Kbps\n   Maximum bit rate : 5 029 Kbps\n   Width : 660 pixels\n   Height : 480 pixels\n   Display aspect ratio : 1.375\n   Frame rate mode : Constant\n   Frame rate : 25.000 fps\n   Color space : YUV\n   Chroma subsampling : 4:2:0\n   Bit depth : 8 bits\n   Scan type : Progressive\n   Bits/(Pixel*Frame) : 0.120\n   Stream size : 660 MiB (92%)\n   Writing library : x264 core 125\n   Encoding settings : cabac=0 // deblock=1:0:0 / analyse=0x1:0x111 / me=hex / subme=7 / psy=1 / psy_rd=1.00:0.00 // me_range=16 / chroma_me=1 / trellis=1 / 8x8dct=0 / cqm=0 / deadzone=21,11 / fast_pskip=1 / chroma_qp_offset=-2 / threads=12 / lookahead_threads=2 / sliced_threads=0 / nr=0 / decimate=1 / interlaced=0 / bluray_compat=0 / constrained_intra=0 / bframes=0 / weightp=0 / keyint=250 / keyint_min=25 / scenecut=40 / intra_refresh=0 / rc_lookahead=40 / rc=abr / mbtree=1 / bitrate=952 / ratetol=1.0 / qcomp=0.60 / qpmin=0 / qpmax=69 / qpstep=4 / ip_ratio=1.40 / aq=1:1.00\n   Tagged date : UTC 2013-02-19 13:07:32\n Audio #2\n   ID : 2\n   Format : AAC\n   Format/Info : Advanced Audio Codec\n   Format profile : LC\n   Codec ID : 40\n   Duration : 1h 38mn\n   Bit rate mode : Variable\n   Bit rate : 76.0 Kbps\n   Maximum bit rate : 108 Kbps\n   Channel count : 2 channels\n   Channel positions : Front: L R\n   Sampling rate : 22.05 KHz\n   Compression mode : Lossy\n   Stream size : 53.3 MiB (7%)\n   Encoded date : UTC 2013-02-19 13:07:30\n   Tagged date : UTC 2013-02-19 13:07:32","torrent":{"xt":"urn:btih:b267410dca6012422b201483d0137cfc44ec7eeb","amp;dn":"Neveroyatnye+priklyucheniya+italyantsev+v+Rossii+%281973%29+AVC+","amp;tr":["udp%3A%2F%2Ftracker.openbittorrent.com%3A80","udp%3A%2F%2Fopen.demonii.com%3A1337","udp%3A%2F%2Ftracker.coppersurfer.tk%3A6969","udp%3A%2F%2Fexodus.desync.com%3A6969"],"infoHash":"b267410dca6012422b201483d0137cfc44ec7eeb","infoHashBuffer":{"type":"Buffer","data":[178,103,65,13,202,96,18,66,43,32,20,131,208,19,124,252,68,236,126,235]},"announce":[],"urlList":[]}}